<svg xmlns="http://www.w3.org/2000/svg" xmlns:xlink="http://www.w3.org/1999/xlink" width="20" height="17.467" viewBox="0 0 20 17.467"><defs><path id="a" d="M1.495 1.443h17.01v14.58H1.495z"/></defs><clipPath id="b"><use xlink:href="#a" overflow="visible"/></clipPath><path clip-path="url(#b)" fill="#E30613" d="M3.49 16.023c-.61 0-1.17-.25-1.54-.689a2.05 2.05 0 0 1-.42-1.681l1.7-10.119c.22-1.181 1.3-2.091 2.47-2.091h10.81c.61 0 1.17.25 1.54.7.38.45.53 1.061.42 1.67l-1.7 10.13c-.22 1.171-1.3 2.08-2.47 2.08H3.49z"/><path clip-path="url(#b)" fill="#FFF" d="M7.75 7.153h.96v-.939c0-.41.01-1.05.31-1.45.32-.42.76-.7 1.5-.7 1.22 0 1.74.17 1.74.17l-.25 1.431s-.4-.11-.77-.11c-.38 0-.72.13-.72.51v1.09h1.54l-.1 1.4h-1.44v4.85H8.71v-4.85h-.96V7.153z"/></svg>