<svg xmlns="http://www.w3.org/2000/svg" width="97" height="97" viewBox="0 0 97 97"><path fill="#D52C1E" d="M90.711 6.288c-3.477-3.477-7.668-5.219-12.568-5.219H18.855c-4.898 0-9.092 1.742-12.568 5.219-3.48 3.48-5.219 7.67-5.219 12.568v59.291c0 4.899 1.738 9.088 5.219 12.569 3.477 3.476 7.67 5.214 12.568 5.214h59.287c4.9 0 9.092-1.738 12.568-5.214 3.482-3.481 5.221-7.67 5.221-12.569V18.856c.001-4.898-1.738-9.087-5.22-12.568zm-17.308 55.63c.821.821 1.232 1.815 1.232 2.99 0 1.174-.411 2.176-1.232 2.997l-5.98 5.979c-.82.821-1.822 1.232-2.99 1.232-1.175 0-2.169-.411-2.99-1.232L48.507 60.949 35.57 73.885c-.821.821-1.821 1.232-2.997 1.232-1.174 0-2.168-.411-2.989-1.232l-5.987-5.979c-.821-.821-1.232-1.823-1.232-2.997 0-1.175.411-2.169 1.232-2.99l12.936-12.936-12.936-12.937c-.821-.821-1.232-1.815-1.232-2.996 0-1.168.411-2.17 1.232-2.991l5.987-5.98c.821-.821 1.815-1.232 2.989-1.232 1.176 0 2.176.411 2.997 1.232l12.937 12.936 12.936-12.936c.821-.821 1.815-1.232 2.99-1.232 1.168 0 2.17.411 2.99 1.232l5.98 5.98c.821.821 1.232 1.823 1.232 2.991 0 1.181-.411 2.175-1.232 2.996L60.468 48.982l12.935 12.936z"/></svg>