<svg xmlns="http://www.w3.org/2000/svg" width="186.566" height="34.935" viewBox="0 0 186.566 34.935"><path fill="#D52C1E" d="M0 0h186.566v34.935H0z"/><path fill="#FFF" d="M6.788 4.855h35.175v24.66H6.788z"/><text transform="translate(53.175 14.366)"><tspan x="0" y="0" fill="#FFF" font-family="'BentonSans-Medium'" font-size="10.382">O</tspan><tspan x="8.088" y="0" fill="#FFF" font-family="'BentonSans-Medium'" font-size="10.382">v</tspan><tspan x="13.559" y="0" fill="#FFF" font-family="'BentonSans-Medium'" font-size="10.382">e</tspan><tspan x="19.664" y="0" fill="#FFF" font-family="'BentonSans-Medium'" font-size="10.382">r</tspan><tspan x="24.014" y="0" fill="#FFF" font-family="'BentonSans-Medium'" font-size="10.382">al</tspan><tspan x="33.223" y="0" fill="#FFF" font-family="'BentonSans-Medium'" font-size="10.382">l</tspan></text><text transform="translate(59.466 25.36)"><tspan x="0" y="0" fill="#FFF" font-family="'BentonSans-Medium'" font-size="10.382">r</tspan><tspan x="4.277" y="0" fill="#FFF" font-family="'BentonSans-Medium'" font-size="10.382">e</tspan><tspan x="10.278" y="0" fill="#FFF" font-family="'BentonSans-Medium'" font-size="10.382">s</tspan><tspan x="15.968" y="0" fill="#FFF" font-family="'BentonSans-Medium'" font-size="10.382">u</tspan><tspan x="22.478" y="0" fill="#FFF" font-family="'BentonSans-Medium'" font-size="10.382">l</tspan><tspan x="25.561" y="0" fill="#FFF" font-family="'BentonSans-Medium'" font-size="10.382">t</tspan></text><text transform="translate(111.538 23.21)" fill="#FFF" font-family="'BentonSans-Black'" font-size="18.877" letter-spacing="-1">FAIL</text><path fill="#D52C1E" d="M32.977 8.326a3.465 3.465 0 0 0-2.54-1.056h-11.99c-.99 0-1.84.353-2.543 1.056-.704.704-1.056 1.55-1.056 2.542v11.99c0 .99.352 1.84 1.056 2.543a3.47 3.47 0 0 0 2.542 1.055h11.99c.99 0 1.84-.352 2.54-1.054a3.462 3.462 0 0 0 1.057-2.54V10.867c0-.99-.35-1.838-1.056-2.542zm-3.5 11.25c.167.166.25.367.25.604a.83.83 0 0 1-.25.607l-1.208 1.208a.822.822 0 0 1-.605.25.82.82 0 0 1-.605-.25l-2.616-2.615-2.617 2.615a.822.822 0 0 1-.606.25.823.823 0 0 1-.604-.25l-1.21-1.208a.83.83 0 0 1-.25-.607c0-.237.084-.438.25-.604l2.616-2.617-2.616-2.617a.823.823 0 0 1-.25-.606c0-.236.084-.438.25-.604l1.21-1.21a.822.822 0 0 1 .605-.248c.24 0 .44.083.607.25l2.617 2.615 2.616-2.616a.82.82 0 0 1 .605-.25c.236 0 .44.084.604.25l1.208 1.21c.166.165.25.368.25.603 0 .24-.084.44-.25.606l-2.616 2.616 2.616 2.616z"/></svg>