<svg xmlns="http://www.w3.org/2000/svg" xmlns:xlink="http://www.w3.org/1999/xlink" width="186.566" height="34.935" viewBox="0 0 186.566 34.935"><path fill="#5AA832" d="M0 0h186.566v34.935H0z"/><path fill="#FFF" d="M6.788 4.855h35.175v24.66H6.788z"/><text transform="translate(53.175 14.366)"><tspan x="0" y="0" fill="#FFF" font-family="'BentonSans-Medium'" font-size="10.382">O</tspan><tspan x="8.088" y="0" fill="#FFF" font-family="'BentonSans-Medium'" font-size="10.382">v</tspan><tspan x="13.559" y="0" fill="#FFF" font-family="'BentonSans-Medium'" font-size="10.382">e</tspan><tspan x="19.664" y="0" fill="#FFF" font-family="'BentonSans-Medium'" font-size="10.382">r</tspan><tspan x="24.014" y="0" fill="#FFF" font-family="'BentonSans-Medium'" font-size="10.382">al</tspan><tspan x="33.223" y="0" fill="#FFF" font-family="'BentonSans-Medium'" font-size="10.382">l</tspan></text><text transform="translate(59.466 25.36)"><tspan x="0" y="0" fill="#FFF" font-family="'BentonSans-Medium'" font-size="10.382">r</tspan><tspan x="4.277" y="0" fill="#FFF" font-family="'BentonSans-Medium'" font-size="10.382">e</tspan><tspan x="10.278" y="0" fill="#FFF" font-family="'BentonSans-Medium'" font-size="10.382">s</tspan><tspan x="15.968" y="0" fill="#FFF" font-family="'BentonSans-Medium'" font-size="10.382">u</tspan><tspan x="22.478" y="0" fill="#FFF" font-family="'BentonSans-Medium'" font-size="10.382">l</tspan><tspan x="25.561" y="0" fill="#FFF" font-family="'BentonSans-Medium'" font-size="10.382">t</tspan></text><defs><path id="a" d="M14.628 7.33h19.496v19.496H14.628z"/></defs><clipPath id="b"><use xlink:href="#a" overflow="visible"/></clipPath><path clip-path="url(#b)" fill="#59A732" d="M33.908 11.12V23.04c0 .983-.35 1.825-1.05 2.525a3.445 3.445 0 0 1-2.525 1.048H18.418a3.45 3.45 0 0 1-2.527-1.047c-.698-.7-1.048-1.542-1.048-2.525V11.12c0-.984.35-1.825 1.05-2.525.698-.7 1.54-1.05 2.526-1.05h11.915c.985 0 1.828.35 2.526 1.05.7.7 1.048 1.54 1.048 2.526M23.345 22.083l7.622-7.622a.768.768 0 0 0 .235-.56.77.77 0 0 0-.235-.558L29.7 12.076a.763.763 0 0 0-.558-.236.758.758 0 0 0-.558.236l-5.798 5.797-2.62-2.62a.76.76 0 0 0-.557-.236c-.217 0-.402.08-.56.237l-1.266 1.266c-.157.158-.235.343-.235.56s.077.4.234.558l4.444 4.444a.767.767 0 0 0 .558.234.766.766 0 0 0 .56-.234"/><text transform="translate(111.538 23.21)"><tspan x="0" y="0" fill="#FFF" font-family="'BentonSans-Black'" font-size="18.877" letter-spacing="-1">P</tspan><tspan x="12.005" y="0" fill="#FFF" font-family="'BentonSans-Black'" font-size="18.877">A</tspan><tspan x="25.71" y="0" fill="#FFF" font-family="'BentonSans-Black'" font-size="18.877">S</tspan><tspan x="39.358" y="0" fill="#FFF" font-family="'BentonSans-Black'" font-size="18.877">S</tspan></text><path fill="#5AA832" d="M0 0h186.566v34.935H0z"/><path fill="#FFF" d="M6.788 4.855h35.175v24.66H6.788z"/><text transform="translate(53.175 14.366)"><tspan x="0" y="0" fill="#FFF" font-family="'BentonSans-Medium'" font-size="10.382">O</tspan><tspan x="8.088" y="0" fill="#FFF" font-family="'BentonSans-Medium'" font-size="10.382">v</tspan><tspan x="13.559" y="0" fill="#FFF" font-family="'BentonSans-Medium'" font-size="10.382">e</tspan><tspan x="19.664" y="0" fill="#FFF" font-family="'BentonSans-Medium'" font-size="10.382">r</tspan><tspan x="24.014" y="0" fill="#FFF" font-family="'BentonSans-Medium'" font-size="10.382">al</tspan><tspan x="33.223" y="0" fill="#FFF" font-family="'BentonSans-Medium'" font-size="10.382">l</tspan></text><text transform="translate(59.466 25.36)"><tspan x="0" y="0" fill="#FFF" font-family="'BentonSans-Medium'" font-size="10.382">r</tspan><tspan x="4.277" y="0" fill="#FFF" font-family="'BentonSans-Medium'" font-size="10.382">e</tspan><tspan x="10.278" y="0" fill="#FFF" font-family="'BentonSans-Medium'" font-size="10.382">s</tspan><tspan x="15.968" y="0" fill="#FFF" font-family="'BentonSans-Medium'" font-size="10.382">u</tspan><tspan x="22.478" y="0" fill="#FFF" font-family="'BentonSans-Medium'" font-size="10.382">l</tspan><tspan x="25.561" y="0" fill="#FFF" font-family="'BentonSans-Medium'" font-size="10.382">t</tspan></text><g><defs><path id="c" d="M14.628 7.33h19.496v19.496H14.628z"/></defs><clipPath id="d"><use xlink:href="#c" overflow="visible"/></clipPath><path clip-path="url(#d)" fill="#59A732" d="M33.908 11.12V23.04c0 .983-.35 1.825-1.05 2.525a3.445 3.445 0 0 1-2.525 1.048H18.418a3.45 3.45 0 0 1-2.527-1.047c-.698-.7-1.048-1.542-1.048-2.525V11.12c0-.984.35-1.825 1.05-2.525.698-.7 1.54-1.05 2.526-1.05h11.915c.985 0 1.828.35 2.526 1.05.7.7 1.048 1.54 1.048 2.526M23.345 22.083l7.622-7.622a.768.768 0 0 0 .235-.56.77.77 0 0 0-.235-.558L29.7 12.076a.763.763 0 0 0-.558-.236.758.758 0 0 0-.558.236l-5.798 5.797-2.62-2.62a.76.76 0 0 0-.557-.236c-.217 0-.402.08-.56.237l-1.266 1.266c-.157.158-.235.343-.235.56s.077.4.234.558l4.444 4.444a.767.767 0 0 0 .558.234.766.766 0 0 0 .56-.234"/></g><text transform="translate(111.538 23.21)"><tspan x="0" y="0" fill="#FFF" font-family="'BentonSans-Black'" font-size="18.877" letter-spacing="-1">P</tspan><tspan x="12.005" y="0" fill="#FFF" font-family="'BentonSans-Black'" font-size="18.877">A</tspan><tspan x="25.71" y="0" fill="#FFF" font-family="'BentonSans-Black'" font-size="18.877">S</tspan><tspan x="39.358" y="0" fill="#FFF" font-family="'BentonSans-Black'" font-size="18.877">S</tspan></text></svg>