<svg xmlns="http://www.w3.org/2000/svg" xmlns:xlink="http://www.w3.org/1999/xlink" width="186.566" height="34.935" viewBox="0 0 186.566 34.935"><path fill="#5AA832" d="M0 0h186.566v34.935H0z"/><path fill="#FFF" d="M6.788 4.855h35.175v24.66H6.788z"/><text transform="translate(53.175 14.366)"><tspan x="0" y="0" fill="#FFF" font-family="'BentonSans-Medium'" font-size="10.382">O</tspan><tspan x="8.088" y="0" fill="#FFF" font-family="'BentonSans-Medium'" font-size="10.382">v</tspan><tspan x="13.559" y="0" fill="#FFF" font-family="'BentonSans-Medium'" font-size="10.382">e</tspan><tspan x="19.664" y="0" fill="#FFF" font-family="'BentonSans-Medium'" font-size="10.382">r</tspan><tspan x="24.014" y="0" fill="#FFF" font-family="'BentonSans-Medium'" font-size="10.382">al</tspan><tspan x="33.223" y="0" fill="#FFF" font-family="'BentonSans-Medium'" font-size="10.382">l</tspan></text><text transform="translate(59.466 25.361)"><tspan x="0" y="0" fill="#FFF" font-family="'BentonSans-Medium'" font-size="10.382">r</tspan><tspan x="4.277" y="0" fill="#FFF" font-family="'BentonSans-Medium'" font-size="10.382">e</tspan><tspan x="10.278" y="0" fill="#FFF" font-family="'BentonSans-Medium'" font-size="10.382">s</tspan><tspan x="15.968" y="0" fill="#FFF" font-family="'BentonSans-Medium'" font-size="10.382">u</tspan><tspan x="22.478" y="0" fill="#FFF" font-family="'BentonSans-Medium'" font-size="10.382">l</tspan><tspan x="25.561" y="0" fill="#FFF" font-family="'BentonSans-Medium'" font-size="10.382">t</tspan></text><defs><path id="a" d="M14.628 7.331h19.496v19.495H14.628z"/></defs><clipPath id="b"><use xlink:href="#a" overflow="visible"/></clipPath><path clip-path="url(#b)" fill="#59A732" d="M33.908 11.121v11.917c0 .983-.349 1.825-1.049 2.525a3.445 3.445 0 0 1-2.526 1.048H18.418c-.985 0-1.828-.35-2.527-1.048-.699-.7-1.049-1.542-1.049-2.525V11.121c0-.985.35-1.826 1.049-2.526a3.446 3.446 0 0 1 2.527-1.049h11.915c.985 0 1.828.35 2.526 1.049.7.7 1.049 1.541 1.049 2.526M23.345 22.082l7.622-7.622a.768.768 0 0 0 .235-.559.77.77 0 0 0-.235-.559l-1.266-1.266a.763.763 0 0 0-.559-.236.758.758 0 0 0-.558.236l-5.798 5.797-2.619-2.619a.759.759 0 0 0-.558-.237.762.762 0 0 0-.559.237l-1.266 1.266c-.157.158-.235.343-.235.559s.078.4.235.559l4.444 4.444a.767.767 0 0 0 .558.234.766.766 0 0 0 .559-.234"/><text transform="translate(111.538 23.21)"><tspan x="0" y="0" fill="#FFF" font-family="'BentonSans-Black'" font-size="18.877" letter-spacing="-1">P</tspan><tspan x="12.005" y="0" fill="#FFF" font-family="'BentonSans-Black'" font-size="18.877">A</tspan><tspan x="25.71" y="0" fill="#FFF" font-family="'BentonSans-Black'" font-size="18.877">S</tspan><tspan x="39.358" y="0" fill="#FFF" font-family="'BentonSans-Black'" font-size="18.877">S</tspan></text><path fill="#5AA832" d="M0 0h186.566v34.935H0z"/><path fill="#FFF" d="M6.788 4.855h35.175v24.66H6.788z"/><text transform="translate(53.175 14.366)"><tspan x="0" y="0" fill="#FFF" font-family="'BentonSans-Medium'" font-size="10.382">O</tspan><tspan x="8.088" y="0" fill="#FFF" font-family="'BentonSans-Medium'" font-size="10.382">v</tspan><tspan x="13.559" y="0" fill="#FFF" font-family="'BentonSans-Medium'" font-size="10.382">e</tspan><tspan x="19.664" y="0" fill="#FFF" font-family="'BentonSans-Medium'" font-size="10.382">r</tspan><tspan x="24.014" y="0" fill="#FFF" font-family="'BentonSans-Medium'" font-size="10.382">al</tspan><tspan x="33.223" y="0" fill="#FFF" font-family="'BentonSans-Medium'" font-size="10.382">l</tspan></text><text transform="translate(59.466 25.361)"><tspan x="0" y="0" fill="#FFF" font-family="'BentonSans-Medium'" font-size="10.382">r</tspan><tspan x="4.277" y="0" fill="#FFF" font-family="'BentonSans-Medium'" font-size="10.382">e</tspan><tspan x="10.278" y="0" fill="#FFF" font-family="'BentonSans-Medium'" font-size="10.382">s</tspan><tspan x="15.968" y="0" fill="#FFF" font-family="'BentonSans-Medium'" font-size="10.382">u</tspan><tspan x="22.478" y="0" fill="#FFF" font-family="'BentonSans-Medium'" font-size="10.382">l</tspan><tspan x="25.561" y="0" fill="#FFF" font-family="'BentonSans-Medium'" font-size="10.382">t</tspan></text><g><defs><path id="c" d="M14.628 7.331h19.496v19.495H14.628z"/></defs><clipPath id="d"><use xlink:href="#c" overflow="visible"/></clipPath><path clip-path="url(#d)" fill="#59A732" d="M33.908 11.121v11.917c0 .983-.349 1.825-1.049 2.525a3.445 3.445 0 0 1-2.526 1.048H18.418c-.985 0-1.828-.35-2.527-1.048-.699-.7-1.049-1.542-1.049-2.525V11.121c0-.985.35-1.826 1.049-2.526a3.446 3.446 0 0 1 2.527-1.049h11.915c.985 0 1.828.35 2.526 1.049.7.7 1.049 1.541 1.049 2.526M23.345 22.082l7.622-7.622a.768.768 0 0 0 .235-.559.77.77 0 0 0-.235-.559l-1.266-1.266a.763.763 0 0 0-.559-.236.758.758 0 0 0-.558.236l-5.798 5.797-2.619-2.619a.759.759 0 0 0-.558-.237.762.762 0 0 0-.559.237l-1.266 1.266c-.157.158-.235.343-.235.559s.078.4.235.559l4.444 4.444a.767.767 0 0 0 .558.234.766.766 0 0 0 .559-.234"/></g><text transform="translate(111.538 23.21)"><tspan x="0" y="0" fill="#FFF" font-family="'BentonSans-Black'" font-size="18.877" letter-spacing="-1">P</tspan><tspan x="12.005" y="0" fill="#FFF" font-family="'BentonSans-Black'" font-size="18.877">A</tspan><tspan x="25.71" y="0" fill="#FFF" font-family="'BentonSans-Black'" font-size="18.877">S</tspan><tspan x="39.358" y="0" fill="#FFF" font-family="'BentonSans-Black'" font-size="18.877">S</tspan></text></svg>