<svg xmlns="http://www.w3.org/2000/svg" width="97" height="97" viewBox="0 0 97 97"><path fill="#58A732" d="M95.931 18.857v59.29c0 4.899-1.738 9.088-5.219 12.569-3.477 3.476-7.669 5.214-12.569 5.214H18.857c-4.899 0-9.092-1.738-12.569-5.214-3.481-3.481-5.219-7.67-5.219-12.569v-59.29c0-4.899 1.738-9.088 5.219-12.569 3.477-3.477 7.669-5.219 12.569-5.219h59.286c4.899 0 9.092 1.742 12.569 5.219 3.481 3.482 5.219 7.67 5.219 12.569zM43.373 73.393L81.295 35.47c.779-.779 1.171-1.707 1.171-2.778 0-1.072-.392-1.995-1.171-2.778l-6.3-6.301c-.783-.783-1.711-1.175-2.778-1.175-1.072 0-2 .392-2.779 1.175L40.594 52.456 27.562 39.424c-.779-.783-1.707-1.176-2.779-1.176s-1.995.393-2.778 1.176l-6.3 6.3c-.784.784-1.171 1.707-1.171 2.778 0 1.072.387 1.995 1.171 2.779l22.111 22.111c.784.783 1.707 1.17 2.778 1.17s1.995-.386 2.779-1.169z"/></svg>