<svg xmlns="http://www.w3.org/2000/svg" width="20" height="17.467" viewBox="0 0 20 17.467"><path fill="#E30613" d="M3.491 16.023c-.611 0-1.172-.25-1.543-.689a2.052 2.052 0 0 1-.416-1.681l1.7-10.119c.214-1.181 1.297-2.091 2.467-2.091h10.809c.609 0 1.173.25 1.544.7.375.45.527 1.061.416 1.67l-1.701 10.13c-.214 1.171-1.297 2.08-2.468 2.08H3.491z"/><path fill="#FFF" d="M14.679 5.834c-.344.149-.715.25-1.103.3.397-.24.702-.61.844-1.06-.371.22-.781.38-1.219.46a1.925 1.925 0 0 0-3.272 1.759 5.502 5.502 0 0 1-3.958-2.01c-.165.279-.26.609-.26.97 0 .66.339 1.25.855 1.59a1.843 1.843 0 0 1-.869-.239v.029c0 .93.66 1.7 1.54 1.88-.162.04-.33.07-.507.07-.123 0-.243-.01-.361-.04.245.77.954 1.32 1.793 1.34a3.88 3.88 0 0 1-2.383.82 3.62 3.62 0 0 1-.458-.03c.849.55 1.858.87 2.942.87 3.533 0 5.463-2.93 5.463-5.47l-.005-.25c.375-.269.701-.609.958-.989"/></svg>