<svg xmlns="http://www.w3.org/2000/svg" width="97" height="97" viewBox="0 0 97 97"><path fill="#EAAB00" d="M90.711 6.288c-3.477-3.477-7.668-5.219-12.568-5.219H18.855c-4.898 0-9.092 1.742-12.568 5.219-3.48 3.48-5.219 7.67-5.219 12.568v59.291c0 4.899 1.738 9.088 5.219 12.569 3.477 3.476 7.67 5.214 12.568 5.214h59.287c4.9 0 9.092-1.738 12.568-5.214 3.482-3.481 5.221-7.67 5.221-12.569V18.856c.001-4.898-1.738-9.087-5.22-12.568zM55.77 73.181c0 .651-.239 1.226-.72 1.7-.479.48-1.046.718-1.703.718h-9.693c-.657 0-1.224-.237-1.704-.718a2.325 2.325 0 0 1-.721-1.7v-8.482c0-.656.241-1.226.721-1.706.48-.479 1.047-.718 1.704-.718h9.693c.657 0 1.224.238 1.703.718.48.48.72 1.05.72 1.706v8.482zm.076-19.388c-.025.654-.285 1.224-.775 1.704-.492.48-1.066.717-1.724.717h-9.693c-.657 0-1.232-.236-1.724-.717s-.75-1.05-.775-1.704l-1.06-29.08a2.228 2.228 0 0 1 .662-1.703c.467-.48 1.026-.721 1.685-.721h12.117c.654 0 1.218.24 1.684.721.467.48.688 1.047.663 1.703l-1.06 29.08z"/></svg>